<?xml version="1.0" encoding="utf-8"?>
<svg xmlns="http://www.w3.org/2000/svg" aria-hidden="true" focusable="false" class="octicon octicon-sidebar-expand" viewBox="0 0 16 16" width="16" height="16" fill="currentColor" style="display: inline-block; user-select: none; vertical-align: text-bottom; overflow: visible;" xmlns:bx="https://boxy-svg.com"><defs><bx:export><bx:file format="svg"/></bx:export></defs><path d="M 4.177 8.177 L 6.573 10.573 C 6.709 10.709 6.941 10.647 6.991 10.461 C 6.997 10.44 7 10.418 7 10.396 L 7 5.604 C 7 5.412 6.792 5.291 6.625 5.387 C 6.606 5.398 6.589 5.411 6.573 5.427 L 4.177 7.823 C 4.079 7.921 4.079 8.079 4.177 8.177 L 4.177 8.177 Z" fill="#9098a1" style="transform-box: fill-box; transform-origin: 50% 50%;" transform="matrix(-1, 0, 0, -1, -0.000001, 0)"/><path d="M0 1.75C0 .784.784 0 1.75 0h12.5C15.216 0 16 .784 16 1.75v12.5A1.75 1.75 0 0 1 14.25 16H1.75A1.75 1.75 0 0 1 0 14.25Zm1.75-.25a.25.25 0 0 0-.25.25v12.5c0 .138.112.25.25.25H9.5v-13Zm12.5 13a.25.25 0 0 0 .25-.25V1.75a.25.25 0 0 0-.25-.25H11v13Z" fill="#9098a1"/></svg>